<svg xmlns="http://www.w3.org/2000/svg" viewBox="0 0 500 278.66667">
  <g id="BACKGROUND">
    <rect width="500" height="278.66667"/>
  </g>
  <g id="OBJECTS">
    <g>
      <g>
        <g>
          <g>
            <polygon points="157.59 77.834 108.581 77.834 74.108 127.144 110.006 127.144 124.917 103.74 124.917 154.702 92.449 154.702 99.99 142.866 63.116 142.866 53.406 156.756 53.406 185.115 122.451 185.115 122.451 193.605 157.59 193.605 157.59 185.115 174.439 185.115 174.439 154.702 157.59 154.702 157.59 77.834" fill="#87e3ce"/>
            <rect x="122.4511" y="203.60987" width="35.1387" height="8.2183" fill="#87e3ce"/>
            <path d="M249.44139,284.6665a21.66,21.66,0,0,1-10.37749-2.3639,18.41581,18.41581,0,0,1-6.78021-5.8564,29.03667,29.03667,0,0,1-3.8025-9.2458,66.794,66.794,0,0,1-1.8489-11.0977q-.41385-5.3406-.4116-12.7399,0-7.279.3993-12.5654h-34.4237q-.49035,6.0171-.4976,12.5654a128.61146,128.61146,0,0,0,3.0824,29.4874,74.7057,74.7057,0,0,0,9.6575,23.3241,43.38885,43.38885,0,0,0,17.981,15.8224q11.40525,5.54865,27.0218,5.548,15.615,0,27.0247-5.548a43.40789,43.40789,0,0,0,17.9781-15.8224A70.48872,70.48872,0,0,0,300.88,283.323h-43.3324A23.14369,23.14369,0,0,1,249.44139,284.6665Z" transform="translate(0 -106.33333)" fill="#87e3ce"/>
            <path d="M232.28369,210.2781a18.49734,18.49734,0,0,1,6.78021-5.8565,23.97423,23.97423,0,0,1,20.755,0,18.55147,18.55147,0,0,1,6.77869,5.8565,29.11569,29.11569,0,0,1,3.8011,9.2472,67.077,67.077,0,0,1,1.85321,11.0976q.40738,5.34525.40729,12.7399,0,7.397-.40729,12.7399a66.97472,66.97472,0,0,1-1.85321,11.0977c-.18979.7616-.3955,1.485-.61,2.1873h35.061a133.82283,133.82283,0,0,0,2.3374-26.0249,128.71992,128.71992,0,0,0-3.0868-29.4874,74.7637,74.7637,0,0,0-9.6561-23.324,43.41741,43.41741,0,0,0-17.9781-15.8223q-11.41185-5.5488-27.0247-5.5481-15.61935,0-27.0218,5.5481a43.39836,43.39836,0,0,0-17.981,15.8223,74.7658,74.7658,0,0,0-9.6575,23.324c-.0653.2764-.1204.564-.1836.8427h35.4057A23.04472,23.04472,0,0,1,232.28369,210.2781Z" transform="translate(0 -106.33333)" fill="#87e3ce"/>
            <polygon points="100.295 127.144 64.397 127.144 53.406 142.866 90.279 142.866 100.295 127.144" fill="#87e3ce"/>
            <rect x="129.5974" y="193.60497" width="35.1388" height="10.0049" fill="#87e3ce"/>
            <polygon points="169.381 63.875 130.132 63.875 120.372 77.834 169.381 77.834 169.381 63.875" fill="#87e3ce"/>
            <polygon points="434.868 77.834 385.859 77.834 351.386 127.144 387.284 127.144 402.195 103.74 402.195 154.702 369.727 154.702 377.268 142.866 340.395 142.866 330.684 156.756 330.684 185.115 399.729 185.115 399.729 193.605 434.868 193.605 434.868 185.115 451.717 185.115 451.717 154.702 434.868 154.702 434.868 77.834" fill="#87e3ce"/>
            <rect x="399.72949" y="203.60987" width="35.1387" height="8.2183" fill="#87e3ce"/>
            <polygon points="377.573 127.144 341.675 127.144 330.684 142.866 367.557 142.866 377.573 127.144" fill="#87e3ce"/>
            <rect x="406.87579" y="193.60497" width="35.1388" height="10.0049" fill="#87e3ce"/>
            <polygon points="446.66 63.875 407.41 63.875 397.651 77.834 446.66 77.834 446.66 63.875" fill="#87e3ce"/>
            <path d="M218.99469,230.6229a66.8955,66.8955,0,0,1,1.8489-11.0976,38.29927,38.29927,0,0,1,1.5219-4.8072h-35.4057a114.85321,114.85321,0,0,0-2.4012,16.0793h34.4237C218.98659,230.7402,218.99029,230.6797,218.99469,230.6229Z" transform="translate(0 -106.33333)" fill="#87e3ce"/>
            <path d="M311.54939,269.3877h-35.061a26.27872,26.27872,0,0,1-3.1911,7.0585,19.85324,19.85324,0,0,1-9.05,6.8768h43.3324A81.81536,81.81536,0,0,0,310.8,272.8502Q311.20169,271.14905,311.54939,269.3877Z" transform="translate(0 -106.33333)" fill="#87e3ce"/>
          </g>
          <g>
            <polygon points="146.1 77.834 97.091 77.834 62.618 127.144 98.516 127.144 113.427 103.74 113.427 154.702 80.959 154.702 88.5 142.866 51.627 142.866 41.916 156.756 41.916 185.115 110.961 185.115 110.961 193.605 146.1 193.605 146.1 185.115 162.95 185.115 162.95 154.702 146.1 154.702 146.1 77.834" fill="#c0283f"/>
            <rect x="110.9615" y="203.60987" width="35.1388" height="8.2183" fill="#c0283f"/>
            <path d="M237.9519,284.6665a21.66017,21.66017,0,0,1-10.37761-2.3639,18.4155,18.4155,0,0,1-6.7801-5.8564,29.03415,29.03415,0,0,1-3.8025-9.2458,66.794,66.794,0,0,1-1.8489-11.0977q-.41384-5.3406-.4117-12.7399,0-7.279.3993-12.5654h-34.4236q-.49034,6.0171-.4977,12.5654a128.6056,128.6056,0,0,0,3.0825,29.4874,74.70318,74.70318,0,0,0,9.6574,23.3241,43.38974,43.38974,0,0,0,17.9811,15.8224q11.40525,5.54865,27.02181,5.548,15.615,0,27.02469-5.548a43.408,43.408,0,0,0,17.9781-15.8224,70.49576,70.49576,0,0,0,6.4358-12.8513h-43.3324A23.144,23.144,0,0,1,237.9519,284.6665Z" transform="translate(0 -106.33333)" fill="#c0283f"/>
            <path d="M220.79419,210.2781a18.497,18.497,0,0,1,6.7801-5.8565,23.97445,23.97445,0,0,1,20.7551,0,18.55224,18.55224,0,0,1,6.7787,5.8565,29.11573,29.11573,0,0,1,3.801,9.2472,67.066,67.066,0,0,1,1.8533,11.0976q.40727,5.34525.4073,12.7399,0,7.397-.4073,12.7399a66.96373,66.96373,0,0,1-1.8533,11.0977c-.1898.7616-.3955,1.485-.61,2.1873h35.0611a133.82283,133.82283,0,0,0,2.3374-26.0249,128.714,128.714,0,0,0-3.0869-29.4874,74.76355,74.76355,0,0,0-9.656-23.324,43.41747,43.41747,0,0,0-17.9781-15.8223q-11.412-5.5488-27.02469-5.5481-15.6195,0-27.02181,5.5481a43.39925,43.39925,0,0,0-17.9811,15.8223,74.76327,74.76327,0,0,0-9.6574,23.324c-.0653.2764-.1205.564-.18369.8427h35.40569A23.03917,23.03917,0,0,1,220.79419,210.2781Z" transform="translate(0 -106.33333)" fill="#c0283f"/>
            <polygon points="88.805 127.144 52.907 127.144 41.916 142.866 78.789 142.866 88.805 127.144" fill="#c0283f"/>
            <rect x="118.1079" y="193.60497" width="35.1388" height="10.0049" fill="#c0283f"/>
            <polygon points="157.892 63.875 118.642 63.875 108.883 77.834 157.892 77.834 157.892 63.875" fill="#c0283f"/>
            <polygon points="423.379 77.834 374.37 77.834 339.897 127.144 375.795 127.144 390.706 103.74 390.706 154.702 358.238 154.702 365.778 142.866 328.905 142.866 319.194 156.756 319.194 185.115 388.24 185.115 388.24 193.605 423.379 193.605 423.379 185.115 440.228 185.115 440.228 154.702 423.379 154.702 423.379 77.834" fill="#c0283f"/>
            <rect x="388.2399" y="203.60987" width="35.13879" height="8.2183" fill="#c0283f"/>
            <polygon points="366.084 127.144 330.186 127.144 319.194 142.866 356.068 142.866 366.084 127.144" fill="#c0283f"/>
            <rect x="395.38629" y="193.60497" width="35.1388" height="10.0049" fill="#c0283f"/>
            <polygon points="435.17 63.875 395.92 63.875 386.161 77.834 435.17 77.834 435.17 63.875" fill="#c0283f"/>
            <path d="M207.50509,230.6229a66.907,66.907,0,0,1,1.8489-11.0976,38.31533,38.31533,0,0,1,1.522-4.8072H175.4703a114.85321,114.85321,0,0,0-2.4012,16.0793h34.42369C207.49709,230.7402,207.50069,230.6797,207.50509,230.6229Z" transform="translate(0 -106.33333)" fill="#c0283f"/>
            <path d="M300.0599,269.3877h-35.061a26.27872,26.27872,0,0,1-3.19111,7.0585,19.85482,19.85482,0,0,1-9.05,6.8768h43.3324a81.79768,81.79768,0,0,0,3.2202-10.4728Q299.71224,271.14905,300.0599,269.3877Z" transform="translate(0 -106.33333)" fill="#c0283f"/>
          </g>
          <g>
            <polygon points="151.158 77.834 102.149 77.834 67.676 127.144 103.574 127.144 118.485 103.74 118.485 154.702 86.017 154.702 93.558 142.866 56.685 142.866 46.974 156.756 46.974 185.115 116.019 185.115 116.019 193.605 151.158 193.605 151.158 185.115 168.007 185.115 168.007 154.702 151.158 154.702 151.158 77.834" fill="#fff"/>
            <rect x="116.0194" y="203.60987" width="35.1387" height="8.2183" fill="#fff"/>
            <path d="M243.00969,284.6665a21.65975,21.65975,0,0,1-10.3775-2.3639,18.41594,18.41594,0,0,1-6.7802-5.8564,29.03644,29.03644,0,0,1-3.8025-9.2458,66.794,66.794,0,0,1-1.8489-11.0977q-.41385-5.3406-.41169-12.7399,0-7.279.39929-12.5654h-34.4236q-.49035,6.0171-.4976,12.5654a128.61146,128.61146,0,0,0,3.0824,29.4874,74.7031,74.7031,0,0,0,9.65751,23.3241,43.38873,43.38873,0,0,0,17.981,15.8224q11.40523,5.54865,27.02179,5.548,15.615,0,27.0247-5.548a43.408,43.408,0,0,0,17.9781-15.8224,70.48936,70.48936,0,0,0,6.4358-12.8513H251.1159A23.14418,23.14418,0,0,1,243.00969,284.6665Z" transform="translate(0 -106.33333)" fill="#fff"/>
            <path d="M225.852,210.2781a18.49747,18.49747,0,0,1,6.7802-5.8565,23.97423,23.97423,0,0,1,20.755,0,18.55235,18.55235,0,0,1,6.77871,5.8565,29.1162,29.1162,0,0,1,3.801,9.2472,67.067,67.067,0,0,1,1.85329,11.0976q.40725,5.34525.4073,12.7399,0,7.397-.4073,12.7399a66.96472,66.96472,0,0,1-1.85329,11.0977c-.18981.7616-.39551,1.485-.60991,2.1873h35.061a133.82283,133.82283,0,0,0,2.3374-26.0249,128.714,128.714,0,0,0-3.0869-29.4874,74.76355,74.76355,0,0,0-9.656-23.324,43.41747,43.41747,0,0,0-17.9781-15.8223q-11.41185-5.5488-27.0247-5.5481-15.61935,0-27.02179,5.5481a43.39823,43.39823,0,0,0-17.981,15.8223,74.7632,74.7632,0,0,0-9.65751,23.324c-.0653.2764-.1204.564-.1836.8427h35.4057A23.03346,23.03346,0,0,1,225.852,210.2781Z" transform="translate(0 -106.33333)" fill="#fff"/>
            <polygon points="93.863 127.144 57.965 127.144 46.974 142.866 83.847 142.866 93.863 127.144" fill="#fff"/>
            <rect x="123.1657" y="193.60497" width="35.1388" height="10.0049" fill="#fff"/>
            <polygon points="162.95 63.875 123.7 63.875 113.941 77.834 162.95 77.834 162.95 63.875" fill="#fff"/>
            <polygon points="428.436 77.834 379.428 77.834 344.955 127.144 380.853 127.144 395.763 103.74 395.763 154.702 363.295 154.702 370.836 142.866 333.963 142.866 324.252 156.756 324.252 185.115 393.298 185.115 393.298 193.605 428.436 193.605 428.436 185.115 445.286 185.115 445.286 154.702 428.436 154.702 428.436 77.834" fill="#fff"/>
            <rect x="393.29779" y="203.60987" width="35.1387" height="8.2183" fill="#fff"/>
            <polygon points="371.142 127.144 335.244 127.144 324.252 142.866 361.125 142.866 371.142 127.144" fill="#fff"/>
            <rect x="400.44409" y="193.60497" width="35.13881" height="10.0049" fill="#fff"/>
            <polygon points="440.228 63.875 400.978 63.875 391.219 77.834 440.228 77.834 440.228 63.875" fill="#fff"/>
            <path d="M212.5629,230.6229a66.90482,66.90482,0,0,1,1.84889-11.0976,38.317,38.317,0,0,1,1.522-4.8072h-35.4057a114.85324,114.85324,0,0,0-2.40119,16.0793h34.42369C212.5549,230.7402,212.55859,230.6797,212.5629,230.6229Z" transform="translate(0 -106.33333)" fill="#fff"/>
            <path d="M305.11769,269.3877h-35.061a26.27872,26.27872,0,0,1-3.1911,7.0585,19.85466,19.85466,0,0,1-9.05,6.8768H301.148a81.79927,81.79927,0,0,0,3.2202-10.4728Q304.77,271.14905,305.11769,269.3877Z" transform="translate(0 -106.33333)" fill="#fff"/>
          </g>
        </g>
        <g>
          <rect x="60.0501" y="106.99487" width="40.245" height="1.3899" fill="#fff"/>
          <rect x="60.0501" y="108.38477" width="40.245" height="1.3899" fill="#070d20"/>
          <rect x="55.0929" y="106.99487" width="1.3899" height="1.3899" fill="#c0283f"/>
          <rect x="51.1411" y="106.99487" width="1.3899" height="1.3899" fill="#c0283f"/>
          <rect x="42.1889" y="106.99487" width="5.5774" height="1.3899" fill="#c0283f"/>
        </g>
        <g>
          <rect x="319.49209" y="150.71497" width="40.245" height="1.39" fill="#fff"/>
          <rect x="319.49209" y="152.10497" width="40.245" height="1.3899" fill="#070d20"/>
          <rect x="314.5349" y="150.71497" width="1.38989" height="1.39" fill="#c0283f"/>
          <rect x="310.58309" y="150.71497" width="1.3899" height="1.39" fill="#c0283f"/>
        </g>
        <g>
          <rect x="137.3797" y="309.9432" width="40.245" height="1.3899" transform="translate(315.00439 514.94297) rotate(180)" fill="#fff"/>
          <rect x="137.3797" y="311.3331" width="40.245" height="1.3899" transform="translate(315.00439 517.72277) rotate(180)" fill="#070d20"/>
          <rect x="181.19199" y="309.9432" width="1.3899" height="1.3899" transform="translate(363.77389 514.94297) rotate(180)" fill="#87e3ce"/>
          <rect x="185.14379" y="309.9432" width="1.3899" height="1.3899" transform="translate(371.67749 514.94297) rotate(180)" fill="#87e3ce"/>
          <rect x="189.90849" y="309.9432" width="5.5775" height="1.3899" transform="translate(385.39449 514.94297) rotate(180)" fill="#87e3ce"/>
        </g>
        <rect x="264.24729" y="178.7716" width="40.245" height="1.3899" transform="translate(568.73958 252.59977) rotate(180)" fill="#fff"/>
        <rect x="410.40259" y="213.3282" width="40.245" height="1.3899" transform="translate(861.05018 321.71297) rotate(180)" fill="#fff"/>
        <rect x="418.01349" y="276.3554" width="40.245" height="1.3899" transform="translate(876.27198 447.76737) rotate(180)" fill="#fff"/>
        <rect x="183.33959" y="297.1049" width="40.245" height="1.3899" transform="translate(406.92419 489.26637) rotate(180)" fill="#fff"/>
        <rect x="309.13339" y="114.70317" width="1.75" height="1.75" fill="#87e3ce"/>
        <rect x="314.4459" y="114.70317" width="1.75" height="1.75" fill="#87e3ce"/>
        <rect x="379.09879" y="69.10437" width="1.75" height="1.75" fill="#c0283f"/>
        <rect x="453.96669" y="106.81477" width="1.75" height="1.75" fill="#fff"/>
        <rect x="459.09169" y="106.81477" width="1.75" height="1.75" fill="#fff"/>
        <rect x="384.41129" y="69.10437" width="1.75" height="1.75" fill="#c0283f"/>
      </g>
      <g>
        <g>
          <g>
            <path d="M110.10156,132.58154c0,5.335-3.24218,8.16309-7.19726,8.16309-4.09326,0-6.96778-3.17285-6.96778-7.86426,0-4.9209,3.0586-8.14062,7.19776-8.14062C107.36523,124.73975,110.10156,127.98193,110.10156,132.58154Zm-12.02636.25293c0,3.31153,1.79345,6.27735,4.94384,6.27735,3.17334,0,4.9668-2.91993,4.9668-6.43848,0-3.08105-1.60938-6.30078-4.94385-6.30078C99.731,126.37256,98.0752,129.43115,98.0752,132.83447Z" transform="translate(0 -106.33333)" fill="#87e3ce"/>
            <path d="M125.94824,132.58154c0,5.335-3.24219,8.16309-7.19726,8.16309-4.09327,0-6.96778-3.17285-6.96778-7.86426,0-4.9209,3.0586-8.14062,7.19776-8.14062C123.21191,124.73975,125.94824,127.98193,125.94824,132.58154Zm-12.02636.25293c0,3.31153,1.79345,6.27735,4.94384,6.27735,3.17334,0,4.9668-2.91993,4.9668-6.43848,0-3.08105-1.60938-6.30078-4.94385-6.30078C115.57764,126.37256,113.92188,129.43115,113.92188,132.83447Z" transform="translate(0 -106.33333)" fill="#87e3ce"/>
            <path d="M128.5498,125.17725a23.17018,23.17018,0,0,1,3.84034-.29883,6.36884,6.36884,0,0,1,4.3457,1.28711,4.16772,4.16772,0,0,1,1.35693,3.24218,4.56207,4.56207,0,0,1-1.1958,3.31153,6.42038,6.42038,0,0,1-4.73681,1.70215,6.87012,6.87012,0,0,1-1.60987-.13868v6.209H128.5498Zm2.00049,7.47363a6.74919,6.74919,0,0,0,1.65576.16016c2.41456,0,3.88624-1.17286,3.88624-3.31055,0-2.04688-1.44874-3.03613-3.65625-3.03613a8.4058,8.4058,0,0,0-1.88575.16113Z" transform="translate(0 -106.33333)" fill="#87e3ce"/>
            <path d="M140.50977,138.0542a7.09121,7.09121,0,0,0,3.5874,1.01172c2.04638,0,3.24219-1.08106,3.24219-2.64453,0-1.44825-.82813-2.27637-2.92041-3.08106-2.5293-.89648-4.09327-2.208-4.09327-4.39258,0-2.41406,2.00049-4.208,5.01319-4.208a7.04659,7.04659,0,0,1,3.42627.75879l-.55225,1.63281a6.17964,6.17964,0,0,0-2.94336-.73535c-2.11523,0-2.92041,1.26464-2.92041,2.32226,0,1.44824.94287,2.16113,3.08154,2.98926,2.62159,1.01172,3.95508,2.27637,3.95508,4.55273,0,2.39161-1.77051,4.46094-5.42676,4.46094a8.01017,8.01017,0,0,1-3.95507-.98828Z" transform="translate(0 -106.33333)" fill="#87e3ce"/>
            <path d="M150.74463,143.31982a33.04578,33.04578,0,0,0,1.37988-5.49511l2.25342-.23047a28.01432,28.01432,0,0,1-2.18457,5.58789Z" transform="translate(0 -106.33333)" fill="#87e3ce"/>
            <path d="M161.48535,138.0542a7.09121,7.09121,0,0,0,3.5874,1.01172c2.04639,0,3.24219-1.08106,3.24219-2.64453,0-1.44825-.82812-2.27637-2.92041-3.08106-2.5293-.89648-4.09326-2.208-4.09326-4.39258,0-2.41406,2.00049-4.208,5.01318-4.208a7.04656,7.04656,0,0,1,3.42627.75879l-.55224,1.63281a6.17964,6.17964,0,0,0-2.94336-.73535c-2.11524,0-2.92041,1.26464-2.92041,2.32226,0,1.44824.94287,2.16113,3.08154,2.98926,2.62158,1.01172,3.95508,2.27637,3.95508,4.55273,0,2.39161-1.77051,4.46094-5.42676,4.46094a8.01021,8.01021,0,0,1-3.95508-.98828Z" transform="translate(0 -106.33333)" fill="#87e3ce"/>
            <path d="M186.34521,132.58154c0,5.335-3.24218,8.16309-7.19726,8.16309-4.09326,0-6.96777-3.17285-6.96777-7.86426,0-4.9209,3.05859-8.14062,7.19775-8.14062C183.60889,124.73975,186.34521,127.98193,186.34521,132.58154Zm-12.02636.25293c0,3.31153,1.79345,6.27735,4.94385,6.27735,3.17334,0,4.96728-2.91993,4.96728-6.43848,0-3.08105-1.60986-6.30078-4.94434-6.30078C175.97461,126.37256,174.31885,129.43115,174.31885,132.83447Z" transform="translate(0 -106.33333)" fill="#87e3ce"/>
            <path d="M202.00781,133.68506c-.11474-2.16113-.25293-4.75977-.23-6.69141H201.709c-.5288,1.81641-1.17285,3.74805-1.95459,5.88672l-2.73632,7.51953h-1.51758l-2.50635-7.38183c-.73584-2.18457-1.35693-4.18457-1.79394-6.02442h-.0459c-.0459,1.93164-.16114,4.53028-.29883,6.85254l-.41406,6.64551h-1.9087l1.08106-15.499H192.166l2.64453,7.49707c.644,1.9082,1.17285,3.61035,1.56347,5.21972h.06934c.39062-1.56347.94287-3.26562,1.63232-5.21972l2.75977-7.49707h2.55225l.96582,15.499h-1.95459Z" transform="translate(0 -106.33333)" fill="#87e3ce"/>
            <path d="M215.46387,133.2251H209.439V138.813h6.71485v1.67871h-8.71533v-15.499h8.37011v1.67871H209.439v4.89843h6.02491Z" transform="translate(0 -106.33333)" fill="#87e3ce"/>
            <path d="M222.06543,126.69482h-4.71387v-1.70214h11.47412v1.70214h-4.73681V140.4917h-2.02344Z" transform="translate(0 -106.33333)" fill="#87e3ce"/>
            <path d="M232.5542,124.99268V131.478h7.49609v-6.48535h2.02442v15.499h-2.02442v-7.2666H232.5542v7.2666h-2v-15.499Z" transform="translate(0 -106.33333)" fill="#87e3ce"/>
            <path d="M247.55029,124.99268v15.499h-2v-15.499Z" transform="translate(0 -106.33333)" fill="#87e3ce"/>
            <path d="M251.04785,140.4917v-15.499h2.18457l4.9668,7.84179a43.95975,43.95975,0,0,1,2.78223,5.03614l.04589-.02344c-.18359-2.06934-.23046-3.95508-.23046-6.36914v-6.48535h1.88574v15.499h-2.02344l-4.9209-7.86426a49.20611,49.20611,0,0,1-2.89746-5.17383l-.06836.02246c.11426,1.95508.16016,3.81739.16016,6.39258v6.62305Z" transform="translate(0 -106.33333)" fill="#87e3ce"/>
            <path d="M277.97754,139.80225a14.45258,14.45258,0,0,1-4.75977.85058,7.2788,7.2788,0,0,1-7.956-7.81836c.02246-4.62207,3.19629-8.002,8.39258-8.002a9.57564,9.57564,0,0,1,3.86328.71289l-.48242,1.63184a8.05068,8.05068,0,0,0-3.42676-.666c-3.77051,0-6.23145,2.34473-6.23145,6.23145,0,3.93164,2.36817,6.2539,5.97852,6.2539a6.53988,6.53988,0,0,0,2.668-.41308v-4.62207h-3.15039v-1.61036h5.10449Z" transform="translate(0 -106.33333)" fill="#87e3ce"/>
            <path d="M297.71094,139.80225a14.45258,14.45258,0,0,1-4.75977.85058,7.2788,7.2788,0,0,1-7.95605-7.81836c.02246-4.62207,3.19629-8.002,8.39258-8.002a9.57568,9.57568,0,0,1,3.86328.71289l-.48243,1.63184a8.05062,8.05062,0,0,0-3.42675-.666c-3.77051,0-6.23145,2.34473-6.23145,6.23145,0,3.93164,2.36817,6.2539,5.97852,6.2539a6.53991,6.53991,0,0,0,2.668-.41308v-4.62207h-3.15039v-1.61036h5.10449Z" transform="translate(0 -106.33333)" fill="#87e3ce"/>
            <path d="M314.01855,132.58154c0,5.335-3.24316,8.16309-7.19824,8.16309-4.09277,0-6.96679-3.17285-6.96679-7.86426,0-4.9209,3.05761-8.14062,7.19726-8.14062C311.28125,124.73975,314.01855,127.98193,314.01855,132.58154Zm-12.02636.25293c0,3.31153,1.793,6.27735,4.94336,6.27735,3.17383,0,4.96679-2.91993,4.96679-6.43848,0-3.08105-1.60937-6.30078-4.94336-6.30078C303.64746,126.37256,301.99219,129.43115,301.99219,132.83447Z" transform="translate(0 -106.33333)" fill="#87e3ce"/>
            <path d="M323.19727,140.4917l-3.93262-15.499h2.11621l1.83887,7.84179c.46,1.93164.874,3.86328,1.15039,5.35742h.0459c.25293-1.54.73535-3.37988,1.26464-5.38085l2.06934-7.81836h2.09277l1.88575,7.86425c.43652,1.83985.85058,3.67969,1.08007,5.3125h.0459c.32227-1.70214.75879-3.42675,1.24219-5.35839l2.04687-7.81836h2.0459l-4.3916,15.499h-2.09277l-1.9541-8.07129a46.3315,46.3315,0,0,1-1.01172-5.05859h-.04688a48.24252,48.24252,0,0,1-1.19531,5.05859l-2.208,8.07129Z" transform="translate(0 -106.33333)" fill="#87e3ce"/>
            <path d="M340.126,125.19971a20.83026,20.83026,0,0,1,3.83984-.32129c2.13867,0,3.51856.39062,4.48438,1.26465a3.86061,3.86061,0,0,1,1.21875,2.94336,4.07,4.07,0,0,1-2.9209,3.95507v.06836c1.19629.41407,1.9082,1.51856,2.27636,3.12793a24.61771,24.61771,0,0,0,1.19629,4.25391h-2.07031a20.05238,20.05238,0,0,1-1.03418-3.70215c-.46-2.13867-1.28809-2.94336-3.10449-3.01269H342.126v6.71484h-2Zm2,7.05957h2.04687c2.13867,0,3.49512-1.17285,3.49512-2.94336,0-2-1.44922-2.874-3.56445-2.89746a8.23211,8.23211,0,0,0-1.97754.18457Z" transform="translate(0 -106.33333)" fill="#87e3ce"/>
            <path d="M365.81348,132.58154c0,5.335-3.24317,8.16309-7.19825,8.16309-4.09277,0-6.96679-3.17285-6.96679-7.86426,0-4.9209,3.05761-8.14062,7.19726-8.14062C363.07617,124.73975,365.81348,127.98193,365.81348,132.58154Zm-12.02637.25293c0,3.31153,1.793,6.27735,4.94336,6.27735,3.17383,0,4.9668-2.91993,4.9668-6.43848,0-3.08105-1.60938-6.30078-4.94336-6.30078C355.44238,126.37256,353.78711,129.43115,353.78711,132.83447Z" transform="translate(0 -106.33333)" fill="#87e3ce"/>
            <path d="M368.415,140.4917v-15.499h2.18457l4.9668,7.84179a43.95957,43.95957,0,0,1,2.78222,5.03614l.0459-.02344c-.18359-2.06934-.23047-3.95508-.23047-6.36914v-6.48535h1.88574v15.499h-2.02343l-4.9209-7.86426a49.20251,49.20251,0,0,1-2.89746-5.17383l-.06836.02246c.11426,1.95508.16015,3.81739.16015,6.39258v6.62305Z" transform="translate(0 -106.33333)" fill="#87e3ce"/>
            <path d="M395.34473,139.80225a14.45264,14.45264,0,0,1-4.75977.85058,7.2788,7.2788,0,0,1-7.95605-7.81836c.02246-4.62207,3.19629-8.002,8.39257-8.002a9.5757,9.5757,0,0,1,3.86329.71289l-.48243,1.63184a8.05062,8.05062,0,0,0-3.42675-.666c-3.77051,0-6.23145,2.34473-6.23145,6.23145,0,3.93164,2.36816,6.2539,5.97852,6.2539a6.53986,6.53986,0,0,0,2.668-.41308v-4.62207h-3.15039v-1.61036h5.1045Z" transform="translate(0 -106.33333)" fill="#87e3ce"/>
          </g>
          <g>
            <path d="M112.10156,132.58154c0,5.335-3.24218,8.16309-7.19726,8.16309-4.09326,0-6.96778-3.17285-6.96778-7.86426,0-4.9209,3.0586-8.14062,7.19776-8.14062C109.36523,124.73975,112.10156,127.98193,112.10156,132.58154Zm-12.02636.25293c0,3.31153,1.79345,6.27735,4.94384,6.27735,3.17334,0,4.9668-2.91993,4.9668-6.43848,0-3.08105-1.60938-6.30078-4.94385-6.30078C101.731,126.37256,100.0752,129.43115,100.0752,132.83447Z" transform="translate(0 -106.33333)" fill="#87e3ce"/>
            <path d="M127.94824,132.58154c0,5.335-3.24219,8.16309-7.19726,8.16309-4.09327,0-6.96778-3.17285-6.96778-7.86426,0-4.9209,3.0586-8.14062,7.19776-8.14062C125.21191,124.73975,127.94824,127.98193,127.94824,132.58154Zm-12.02636.25293c0,3.31153,1.79345,6.27735,4.94384,6.27735,3.17334,0,4.9668-2.91993,4.9668-6.43848,0-3.08105-1.60938-6.30078-4.94385-6.30078C117.57764,126.37256,115.92188,129.43115,115.92188,132.83447Z" transform="translate(0 -106.33333)" fill="#87e3ce"/>
            <path d="M130.5498,125.17725a23.17018,23.17018,0,0,1,3.84034-.29883,6.36884,6.36884,0,0,1,4.3457,1.28711,4.16772,4.16772,0,0,1,1.35693,3.24218,4.56207,4.56207,0,0,1-1.1958,3.31153,6.42038,6.42038,0,0,1-4.73681,1.70215,6.87012,6.87012,0,0,1-1.60987-.13868v6.209H130.5498Zm2.00049,7.47363a6.74919,6.74919,0,0,0,1.65576.16016c2.41456,0,3.88624-1.17286,3.88624-3.31055,0-2.04688-1.44874-3.03613-3.65625-3.03613a8.4058,8.4058,0,0,0-1.88575.16113Z" transform="translate(0 -106.33333)" fill="#87e3ce"/>
            <path d="M142.50977,138.0542a7.09121,7.09121,0,0,0,3.5874,1.01172c2.04638,0,3.24219-1.08106,3.24219-2.64453,0-1.44825-.82813-2.27637-2.92041-3.08106-2.5293-.89648-4.09327-2.208-4.09327-4.39258,0-2.41406,2.00049-4.208,5.01319-4.208a7.04659,7.04659,0,0,1,3.42627.75879l-.55225,1.63281a6.17964,6.17964,0,0,0-2.94336-.73535c-2.11523,0-2.92041,1.26464-2.92041,2.32226,0,1.44824.94287,2.16113,3.08154,2.98926,2.62159,1.01172,3.95508,2.27637,3.95508,4.55273,0,2.39161-1.77051,4.46094-5.42676,4.46094a8.01017,8.01017,0,0,1-3.95507-.98828Z" transform="translate(0 -106.33333)" fill="#87e3ce"/>
            <path d="M152.74463,143.31982a33.04578,33.04578,0,0,0,1.37988-5.49511l2.25342-.23047a28.01432,28.01432,0,0,1-2.18457,5.58789Z" transform="translate(0 -106.33333)" fill="#87e3ce"/>
            <path d="M163.48535,138.0542a7.09121,7.09121,0,0,0,3.5874,1.01172c2.04639,0,3.24219-1.08106,3.24219-2.64453,0-1.44825-.82812-2.27637-2.92041-3.08106-2.5293-.89648-4.09326-2.208-4.09326-4.39258,0-2.41406,2.00049-4.208,5.01318-4.208a7.04656,7.04656,0,0,1,3.42627.75879l-.55224,1.63281a6.17964,6.17964,0,0,0-2.94336-.73535c-2.11524,0-2.92041,1.26464-2.92041,2.32226,0,1.44824.94287,2.16113,3.08154,2.98926,2.62158,1.01172,3.95508,2.27637,3.95508,4.55273,0,2.39161-1.77051,4.46094-5.42676,4.46094a8.01021,8.01021,0,0,1-3.95508-.98828Z" transform="translate(0 -106.33333)" fill="#87e3ce"/>
            <path d="M188.34521,132.58154c0,5.335-3.24218,8.16309-7.19726,8.16309-4.09326,0-6.96777-3.17285-6.96777-7.86426,0-4.9209,3.05859-8.14062,7.19775-8.14062C185.60889,124.73975,188.34521,127.98193,188.34521,132.58154Zm-12.02636.25293c0,3.31153,1.79345,6.27735,4.94385,6.27735,3.17334,0,4.96728-2.91993,4.96728-6.43848,0-3.08105-1.60986-6.30078-4.94434-6.30078C177.97461,126.37256,176.31885,129.43115,176.31885,132.83447Z" transform="translate(0 -106.33333)" fill="#87e3ce"/>
            <path d="M204.00781,133.68506c-.11474-2.16113-.25293-4.75977-.23-6.69141H203.709c-.5288,1.81641-1.17285,3.74805-1.95459,5.88672l-2.73632,7.51953h-1.51758l-2.50635-7.38183c-.73584-2.18457-1.35693-4.18457-1.79394-6.02442h-.0459c-.0459,1.93164-.16114,4.53028-.29883,6.85254l-.41406,6.64551h-1.9087l1.08106-15.499H194.166l2.64453,7.49707c.644,1.9082,1.17285,3.61035,1.56347,5.21972h.06934c.39062-1.56347.94287-3.26562,1.63232-5.21972l2.75977-7.49707h2.55225l.96582,15.499h-1.95459Z" transform="translate(0 -106.33333)" fill="#87e3ce"/>
            <path d="M217.46387,133.2251H211.439V138.813h6.71485v1.67871h-8.71533v-15.499h8.37011v1.67871H211.439v4.89843h6.02491Z" transform="translate(0 -106.33333)" fill="#87e3ce"/>
            <path d="M224.06543,126.69482h-4.71387v-1.70214h11.47412v1.70214h-4.73681V140.4917h-2.02344Z" transform="translate(0 -106.33333)" fill="#87e3ce"/>
            <path d="M234.5542,124.99268V131.478h7.49609v-6.48535h2.02442v15.499h-2.02442v-7.2666H234.5542v7.2666h-2v-15.499Z" transform="translate(0 -106.33333)" fill="#87e3ce"/>
            <path d="M249.55029,124.99268v15.499h-2v-15.499Z" transform="translate(0 -106.33333)" fill="#87e3ce"/>
            <path d="M253.04785,140.4917v-15.499h2.18457l4.9668,7.84179a43.95975,43.95975,0,0,1,2.78223,5.03614l.04589-.02344c-.18359-2.06934-.23046-3.95508-.23046-6.36914v-6.48535h1.88574v15.499h-2.02344l-4.9209-7.86426a49.20611,49.20611,0,0,1-2.89746-5.17383l-.06836.02246c.11426,1.95508.16016,3.81739.16016,6.39258v6.62305Z" transform="translate(0 -106.33333)" fill="#87e3ce"/>
            <path d="M279.97754,139.80225a14.45258,14.45258,0,0,1-4.75977.85058,7.2788,7.2788,0,0,1-7.956-7.81836c.02246-4.62207,3.19629-8.002,8.39258-8.002a9.57564,9.57564,0,0,1,3.86328.71289l-.48242,1.63184a8.05068,8.05068,0,0,0-3.42676-.666c-3.77051,0-6.23145,2.34473-6.23145,6.23145,0,3.93164,2.36817,6.2539,5.97852,6.2539a6.53988,6.53988,0,0,0,2.668-.41308v-4.62207h-3.15039v-1.61036h5.10449Z" transform="translate(0 -106.33333)" fill="#87e3ce"/>
            <path d="M299.71094,139.80225a14.45258,14.45258,0,0,1-4.75977.85058,7.2788,7.2788,0,0,1-7.95605-7.81836c.02246-4.62207,3.19629-8.002,8.39258-8.002a9.57568,9.57568,0,0,1,3.86328.71289l-.48243,1.63184a8.05062,8.05062,0,0,0-3.42675-.666c-3.77051,0-6.23145,2.34473-6.23145,6.23145,0,3.93164,2.36817,6.2539,5.97852,6.2539a6.53991,6.53991,0,0,0,2.668-.41308v-4.62207h-3.15039v-1.61036h5.10449Z" transform="translate(0 -106.33333)" fill="#87e3ce"/>
            <path d="M316.01855,132.58154c0,5.335-3.24316,8.16309-7.19824,8.16309-4.09277,0-6.96679-3.17285-6.96679-7.86426,0-4.9209,3.05761-8.14062,7.19726-8.14062C313.28125,124.73975,316.01855,127.98193,316.01855,132.58154Zm-12.02636.25293c0,3.31153,1.793,6.27735,4.94336,6.27735,3.17383,0,4.96679-2.91993,4.96679-6.43848,0-3.08105-1.60937-6.30078-4.94336-6.30078C305.64746,126.37256,303.99219,129.43115,303.99219,132.83447Z" transform="translate(0 -106.33333)" fill="#87e3ce"/>
            <path d="M325.19727,140.4917l-3.93262-15.499h2.11621l1.83887,7.84179c.46,1.93164.874,3.86328,1.15039,5.35742h.0459c.25293-1.54.73535-3.37988,1.26464-5.38085l2.06934-7.81836h2.09277l1.88575,7.86425c.43652,1.83985.85058,3.67969,1.08007,5.3125h.0459c.32227-1.70214.75879-3.42675,1.24219-5.35839l2.04687-7.81836h2.0459l-4.3916,15.499h-2.09277l-1.9541-8.07129a46.3315,46.3315,0,0,1-1.01172-5.05859h-.04688a48.24252,48.24252,0,0,1-1.19531,5.05859l-2.208,8.07129Z" transform="translate(0 -106.33333)" fill="#87e3ce"/>
            <path d="M342.126,125.19971a20.83026,20.83026,0,0,1,3.83984-.32129c2.13867,0,3.51856.39062,4.48438,1.26465a3.86061,3.86061,0,0,1,1.21875,2.94336,4.07,4.07,0,0,1-2.9209,3.95507v.06836c1.19629.41407,1.9082,1.51856,2.27636,3.12793a24.61771,24.61771,0,0,0,1.19629,4.25391h-2.07031a20.05238,20.05238,0,0,1-1.03418-3.70215c-.46-2.13867-1.28809-2.94336-3.10449-3.01269H344.126v6.71484h-2Zm2,7.05957h2.04687c2.13867,0,3.49512-1.17285,3.49512-2.94336,0-2-1.44922-2.874-3.56445-2.89746a8.23211,8.23211,0,0,0-1.97754.18457Z" transform="translate(0 -106.33333)" fill="#87e3ce"/>
            <path d="M367.81348,132.58154c0,5.335-3.24317,8.16309-7.19825,8.16309-4.09277,0-6.96679-3.17285-6.96679-7.86426,0-4.9209,3.05761-8.14062,7.19726-8.14062C365.07617,124.73975,367.81348,127.98193,367.81348,132.58154Zm-12.02637.25293c0,3.31153,1.793,6.27735,4.94336,6.27735,3.17383,0,4.9668-2.91993,4.9668-6.43848,0-3.08105-1.60938-6.30078-4.94336-6.30078C357.44238,126.37256,355.78711,129.43115,355.78711,132.83447Z" transform="translate(0 -106.33333)" fill="#87e3ce"/>
            <path d="M370.415,140.4917v-15.499h2.18457l4.9668,7.84179a43.95957,43.95957,0,0,1,2.78222,5.03614l.0459-.02344c-.18359-2.06934-.23047-3.95508-.23047-6.36914v-6.48535h1.88574v15.499h-2.02343l-4.9209-7.86426a49.20251,49.20251,0,0,1-2.89746-5.17383l-.06836.02246c.11426,1.95508.16015,3.81739.16015,6.39258v6.62305Z" transform="translate(0 -106.33333)" fill="#87e3ce"/>
            <path d="M397.34473,139.80225a14.45264,14.45264,0,0,1-4.75977.85058,7.2788,7.2788,0,0,1-7.95605-7.81836c.02246-4.62207,3.19629-8.002,8.39257-8.002a9.5757,9.5757,0,0,1,3.86329.71289l-.48243,1.63184a8.05062,8.05062,0,0,0-3.42675-.666c-3.77051,0-6.23145,2.34473-6.23145,6.23145,0,3.93164,2.36816,6.2539,5.97852,6.2539a6.53986,6.53986,0,0,0,2.668-.41308v-4.62207h-3.15039v-1.61036h5.1045Z" transform="translate(0 -106.33333)" fill="#87e3ce"/>
          </g>
        </g>
        <g>
          <g>
            <path d="M108.10156,132.58154c0,5.335-3.24218,8.16309-7.19726,8.16309-4.09326,0-6.96778-3.17285-6.96778-7.86426,0-4.9209,3.0586-8.14062,7.19776-8.14062C105.36523,124.73975,108.10156,127.98193,108.10156,132.58154Zm-12.02636.25293c0,3.31153,1.79345,6.27735,4.94384,6.27735,3.17334,0,4.9668-2.91993,4.9668-6.43848,0-3.08105-1.60938-6.30078-4.94385-6.30078C97.731,126.37256,96.0752,129.43115,96.0752,132.83447Z" transform="translate(0 -106.33333)" fill="#c0283f"/>
            <path d="M123.94824,132.58154c0,5.335-3.24219,8.16309-7.19726,8.16309-4.09327,0-6.96778-3.17285-6.96778-7.86426,0-4.9209,3.0586-8.14062,7.19776-8.14062C121.21191,124.73975,123.94824,127.98193,123.94824,132.58154Zm-12.02636.25293c0,3.31153,1.79345,6.27735,4.94384,6.27735,3.17334,0,4.9668-2.91993,4.9668-6.43848,0-3.08105-1.60938-6.30078-4.94385-6.30078C113.57764,126.37256,111.92188,129.43115,111.92188,132.83447Z" transform="translate(0 -106.33333)" fill="#c0283f"/>
            <path d="M126.5498,125.17725a23.17018,23.17018,0,0,1,3.84034-.29883,6.36884,6.36884,0,0,1,4.3457,1.28711,4.16772,4.16772,0,0,1,1.35693,3.24218,4.56207,4.56207,0,0,1-1.1958,3.31153,6.42038,6.42038,0,0,1-4.73681,1.70215,6.87012,6.87012,0,0,1-1.60987-.13868v6.209H126.5498Zm2.00049,7.47363a6.74919,6.74919,0,0,0,1.65576.16016c2.41456,0,3.88624-1.17286,3.88624-3.31055,0-2.04688-1.44874-3.03613-3.65625-3.03613a8.4058,8.4058,0,0,0-1.88575.16113Z" transform="translate(0 -106.33333)" fill="#c0283f"/>
            <path d="M138.50977,138.0542a7.09121,7.09121,0,0,0,3.5874,1.01172c2.04638,0,3.24219-1.08106,3.24219-2.64453,0-1.44825-.82813-2.27637-2.92041-3.08106-2.5293-.89648-4.09327-2.208-4.09327-4.39258,0-2.41406,2.00049-4.208,5.01319-4.208a7.04659,7.04659,0,0,1,3.42627.75879l-.55225,1.63281a6.17964,6.17964,0,0,0-2.94336-.73535c-2.11523,0-2.92041,1.26464-2.92041,2.32226,0,1.44824.94287,2.16113,3.08154,2.98926,2.62159,1.01172,3.95508,2.27637,3.95508,4.55273,0,2.39161-1.77051,4.46094-5.42676,4.46094a8.01017,8.01017,0,0,1-3.95507-.98828Z" transform="translate(0 -106.33333)" fill="#c0283f"/>
            <path d="M148.74463,143.31982a33.04578,33.04578,0,0,0,1.37988-5.49511l2.25342-.23047a28.01432,28.01432,0,0,1-2.18457,5.58789Z" transform="translate(0 -106.33333)" fill="#c0283f"/>
            <path d="M159.48535,138.0542a7.09121,7.09121,0,0,0,3.5874,1.01172c2.04639,0,3.24219-1.08106,3.24219-2.64453,0-1.44825-.82812-2.27637-2.92041-3.08106-2.5293-.89648-4.09326-2.208-4.09326-4.39258,0-2.41406,2.00049-4.208,5.01318-4.208a7.04656,7.04656,0,0,1,3.42627.75879l-.55224,1.63281a6.17964,6.17964,0,0,0-2.94336-.73535c-2.11524,0-2.92041,1.26464-2.92041,2.32226,0,1.44824.94287,2.16113,3.08154,2.98926,2.62158,1.01172,3.95508,2.27637,3.95508,4.55273,0,2.39161-1.77051,4.46094-5.42676,4.46094a8.01021,8.01021,0,0,1-3.95508-.98828Z" transform="translate(0 -106.33333)" fill="#c0283f"/>
            <path d="M184.34521,132.58154c0,5.335-3.24218,8.16309-7.19726,8.16309-4.09326,0-6.96777-3.17285-6.96777-7.86426,0-4.9209,3.05859-8.14062,7.19775-8.14062C181.60889,124.73975,184.34521,127.98193,184.34521,132.58154Zm-12.02636.25293c0,3.31153,1.79345,6.27735,4.94385,6.27735,3.17334,0,4.96728-2.91993,4.96728-6.43848,0-3.08105-1.60986-6.30078-4.94434-6.30078C173.97461,126.37256,172.31885,129.43115,172.31885,132.83447Z" transform="translate(0 -106.33333)" fill="#c0283f"/>
            <path d="M200.00781,133.68506c-.11474-2.16113-.25293-4.75977-.23-6.69141H199.709c-.5288,1.81641-1.17285,3.74805-1.95459,5.88672l-2.73632,7.51953h-1.51758l-2.50635-7.38183c-.73584-2.18457-1.35693-4.18457-1.79394-6.02442h-.0459c-.0459,1.93164-.16114,4.53028-.29883,6.85254l-.41406,6.64551h-1.9087l1.08106-15.499H190.166l2.64453,7.49707c.644,1.9082,1.17285,3.61035,1.56347,5.21972h.06934c.39062-1.56347.94287-3.26562,1.63232-5.21972l2.75977-7.49707h2.55225l.96582,15.499h-1.95459Z" transform="translate(0 -106.33333)" fill="#c0283f"/>
            <path d="M213.46387,133.2251H207.439V138.813h6.71485v1.67871h-8.71533v-15.499h8.37011v1.67871H207.439v4.89843h6.02491Z" transform="translate(0 -106.33333)" fill="#c0283f"/>
            <path d="M220.06543,126.69482h-4.71387v-1.70214h11.47412v1.70214h-4.73681V140.4917h-2.02344Z" transform="translate(0 -106.33333)" fill="#c0283f"/>
            <path d="M230.5542,124.99268V131.478h7.49609v-6.48535h2.02442v15.499h-2.02442v-7.2666H230.5542v7.2666h-2v-15.499Z" transform="translate(0 -106.33333)" fill="#c0283f"/>
            <path d="M245.55029,124.99268v15.499h-2v-15.499Z" transform="translate(0 -106.33333)" fill="#c0283f"/>
            <path d="M249.04736,140.4917v-15.499h2.18506l4.9668,7.84179a43.95975,43.95975,0,0,1,2.78223,5.03614l.04589-.02344c-.18359-2.06934-.23046-3.95508-.23046-6.36914v-6.48535h1.88574v15.499h-2.02344l-4.9209-7.86426a49.3012,49.3012,0,0,1-2.898-5.17383l-.06836.02246c.11426,1.95508.16016,3.81739.16016,6.39258v6.62305Z" transform="translate(0 -106.33333)" fill="#c0283f"/>
            <path d="M275.97754,139.80225a14.45258,14.45258,0,0,1-4.75977.85058,7.2788,7.2788,0,0,1-7.956-7.81836c.02246-4.62207,3.19629-8.002,8.39258-8.002a9.57564,9.57564,0,0,1,3.86328.71289l-.48242,1.63184a8.05068,8.05068,0,0,0-3.42676-.666c-3.77051,0-6.23145,2.34473-6.23145,6.23145,0,3.93164,2.36817,6.2539,5.97852,6.2539a6.53988,6.53988,0,0,0,2.668-.41308v-4.62207h-3.15039v-1.61036h5.10449Z" transform="translate(0 -106.33333)" fill="#c0283f"/>
            <path d="M295.71094,139.80225a14.45258,14.45258,0,0,1-4.75977.85058,7.2788,7.2788,0,0,1-7.95605-7.81836c.02246-4.62207,3.19629-8.002,8.39258-8.002a9.57568,9.57568,0,0,1,3.86328.71289l-.48243,1.63184a8.05062,8.05062,0,0,0-3.42675-.666c-3.77051,0-6.23145,2.34473-6.23145,6.23145,0,3.93164,2.36817,6.2539,5.97852,6.2539a6.53991,6.53991,0,0,0,2.668-.41308v-4.62207h-3.15039v-1.61036h5.10449Z" transform="translate(0 -106.33333)" fill="#c0283f"/>
            <path d="M312.01855,132.58154c0,5.335-3.24316,8.16309-7.19824,8.16309-4.09277,0-6.96679-3.17285-6.96679-7.86426,0-4.9209,3.05761-8.14062,7.19726-8.14062C309.28125,124.73975,312.01855,127.98193,312.01855,132.58154Zm-12.02636.25293c0,3.31153,1.793,6.27735,4.94336,6.27735,3.17383,0,4.96679-2.91993,4.96679-6.43848,0-3.08105-1.60937-6.30078-4.94336-6.30078C301.64746,126.37256,299.99219,129.43115,299.99219,132.83447Z" transform="translate(0 -106.33333)" fill="#c0283f"/>
            <path d="M321.19727,140.4917l-3.93262-15.499h2.11621l1.83887,7.84179c.46,1.93164.874,3.86328,1.15039,5.35742h.0459c.25293-1.54.73535-3.37988,1.26464-5.38085l2.06934-7.81836h2.09277l1.88575,7.86425c.43652,1.83985.85058,3.67969,1.08007,5.3125h.0459c.32227-1.70214.75879-3.42675,1.24219-5.35839l2.04687-7.81836h2.0459l-4.3916,15.499h-2.09277l-1.9541-8.07129a46.3315,46.3315,0,0,1-1.01172-5.05859h-.04688a48.24252,48.24252,0,0,1-1.19531,5.05859l-2.208,8.07129Z" transform="translate(0 -106.33333)" fill="#c0283f"/>
            <path d="M338.126,125.19971a20.83026,20.83026,0,0,1,3.83984-.32129c2.13867,0,3.51856.39062,4.48438,1.26465a3.86061,3.86061,0,0,1,1.21875,2.94336,4.07,4.07,0,0,1-2.9209,3.95507v.06836c1.19629.41407,1.9082,1.51856,2.27636,3.12793a24.61771,24.61771,0,0,0,1.19629,4.25391h-2.07031a20.05238,20.05238,0,0,1-1.03418-3.70215c-.46-2.13867-1.28809-2.94336-3.10449-3.01269H340.126v6.71484h-2Zm2,7.05957h2.04687c2.13867,0,3.49512-1.17285,3.49512-2.94336,0-2-1.44922-2.874-3.56445-2.89746a8.23211,8.23211,0,0,0-1.97754.18457Z" transform="translate(0 -106.33333)" fill="#c0283f"/>
            <path d="M363.81348,132.58154c0,5.335-3.24317,8.16309-7.19825,8.16309-4.09277,0-6.96679-3.17285-6.96679-7.86426,0-4.9209,3.05761-8.14062,7.19726-8.14062C361.07617,124.73975,363.81348,127.98193,363.81348,132.58154Zm-12.02637.25293c0,3.31153,1.793,6.27735,4.94336,6.27735,3.17383,0,4.9668-2.91993,4.9668-6.43848,0-3.08105-1.60938-6.30078-4.94336-6.30078C353.44238,126.37256,351.78711,129.43115,351.78711,132.83447Z" transform="translate(0 -106.33333)" fill="#c0283f"/>
            <path d="M366.415,140.4917v-15.499h2.18457l4.9668,7.84179a43.95957,43.95957,0,0,1,2.78222,5.03614l.0459-.02344c-.18359-2.06934-.23047-3.95508-.23047-6.36914v-6.48535h1.88574v15.499h-2.02343l-4.9209-7.86426a49.20251,49.20251,0,0,1-2.89746-5.17383l-.06836.02246c.11426,1.95508.16015,3.81739.16015,6.39258v6.62305Z" transform="translate(0 -106.33333)" fill="#c0283f"/>
            <path d="M393.34473,139.80225a14.45264,14.45264,0,0,1-4.75977.85058,7.2788,7.2788,0,0,1-7.95605-7.81836c.02246-4.62207,3.19629-8.002,8.39257-8.002a9.5757,9.5757,0,0,1,3.86329.71289l-.48243,1.63184a8.05062,8.05062,0,0,0-3.42675-.666c-3.77051,0-6.23145,2.34473-6.23145,6.23145,0,3.93164,2.36816,6.2539,5.97852,6.2539a6.53986,6.53986,0,0,0,2.668-.41308v-4.62207h-3.15039v-1.61036h5.1045Z" transform="translate(0 -106.33333)" fill="#c0283f"/>
          </g>
          <g>
            <path d="M110.10156,132.58154c0,5.335-3.24218,8.16309-7.19726,8.16309-4.09326,0-6.96778-3.17285-6.96778-7.86426,0-4.9209,3.0586-8.14062,7.19776-8.14062C107.36523,124.73975,110.10156,127.98193,110.10156,132.58154Zm-12.02636.25293c0,3.31153,1.79345,6.27735,4.94384,6.27735,3.17334,0,4.9668-2.91993,4.9668-6.43848,0-3.08105-1.60938-6.30078-4.94385-6.30078C99.731,126.37256,98.0752,129.43115,98.0752,132.83447Z" transform="translate(0 -106.33333)" fill="#fff"/>
            <path d="M125.94824,132.58154c0,5.335-3.24219,8.16309-7.19726,8.16309-4.09327,0-6.96778-3.17285-6.96778-7.86426,0-4.9209,3.0586-8.14062,7.19776-8.14062C123.21191,124.73975,125.94824,127.98193,125.94824,132.58154Zm-12.02636.25293c0,3.31153,1.79345,6.27735,4.94384,6.27735,3.17334,0,4.9668-2.91993,4.9668-6.43848,0-3.08105-1.60938-6.30078-4.94385-6.30078C115.57764,126.37256,113.92188,129.43115,113.92188,132.83447Z" transform="translate(0 -106.33333)" fill="#fff"/>
            <path d="M128.5498,125.17725a23.17018,23.17018,0,0,1,3.84034-.29883,6.36884,6.36884,0,0,1,4.3457,1.28711,4.16772,4.16772,0,0,1,1.35693,3.24218,4.56207,4.56207,0,0,1-1.1958,3.31153,6.42038,6.42038,0,0,1-4.73681,1.70215,6.87012,6.87012,0,0,1-1.60987-.13868v6.209H128.5498Zm2.00049,7.47363a6.74919,6.74919,0,0,0,1.65576.16016c2.41456,0,3.88624-1.17286,3.88624-3.31055,0-2.04688-1.44874-3.03613-3.65625-3.03613a8.4058,8.4058,0,0,0-1.88575.16113Z" transform="translate(0 -106.33333)" fill="#fff"/>
            <path d="M140.50977,138.0542a7.09121,7.09121,0,0,0,3.5874,1.01172c2.04638,0,3.24219-1.08106,3.24219-2.64453,0-1.44825-.82813-2.27637-2.92041-3.08106-2.5293-.89648-4.09327-2.208-4.09327-4.39258,0-2.41406,2.00049-4.208,5.01319-4.208a7.04659,7.04659,0,0,1,3.42627.75879l-.55225,1.63281a6.17964,6.17964,0,0,0-2.94336-.73535c-2.11523,0-2.92041,1.26464-2.92041,2.32226,0,1.44824.94287,2.16113,3.08154,2.98926,2.62159,1.01172,3.95508,2.27637,3.95508,4.55273,0,2.39161-1.77051,4.46094-5.42676,4.46094a8.01017,8.01017,0,0,1-3.95507-.98828Z" transform="translate(0 -106.33333)" fill="#fff"/>
            <path d="M150.74463,143.31982a33.04578,33.04578,0,0,0,1.37988-5.49511l2.25342-.23047a28.01432,28.01432,0,0,1-2.18457,5.58789Z" transform="translate(0 -106.33333)" fill="#fff"/>
            <path d="M161.48535,138.0542a7.09121,7.09121,0,0,0,3.5874,1.01172c2.04639,0,3.24219-1.08106,3.24219-2.64453,0-1.44825-.82812-2.27637-2.92041-3.08106-2.5293-.89648-4.09326-2.208-4.09326-4.39258,0-2.41406,2.00049-4.208,5.01318-4.208a7.04656,7.04656,0,0,1,3.42627.75879l-.55224,1.63281a6.17964,6.17964,0,0,0-2.94336-.73535c-2.11524,0-2.92041,1.26464-2.92041,2.32226,0,1.44824.94287,2.16113,3.08154,2.98926,2.62158,1.01172,3.95508,2.27637,3.95508,4.55273,0,2.39161-1.77051,4.46094-5.42676,4.46094a8.01021,8.01021,0,0,1-3.95508-.98828Z" transform="translate(0 -106.33333)" fill="#fff"/>
            <path d="M186.34521,132.58154c0,5.335-3.24218,8.16309-7.19726,8.16309-4.09326,0-6.96777-3.17285-6.96777-7.86426,0-4.9209,3.05859-8.14062,7.19775-8.14062C183.60889,124.73975,186.34521,127.98193,186.34521,132.58154Zm-12.02636.25293c0,3.31153,1.79345,6.27735,4.94385,6.27735,3.17334,0,4.96728-2.91993,4.96728-6.43848,0-3.08105-1.60986-6.30078-4.94434-6.30078C175.97461,126.37256,174.31885,129.43115,174.31885,132.83447Z" transform="translate(0 -106.33333)" fill="#fff"/>
            <path d="M202.00781,133.68506c-.11474-2.16113-.25293-4.75977-.23-6.69141H201.709c-.5288,1.81641-1.17285,3.74805-1.95459,5.88672l-2.73632,7.51953h-1.51758l-2.50635-7.38183c-.73584-2.18457-1.35693-4.18457-1.79394-6.02442h-.0459c-.0459,1.93164-.16114,4.53028-.29883,6.85254l-.41406,6.64551h-1.9087l1.08106-15.499H192.166l2.64453,7.49707c.644,1.9082,1.17285,3.61035,1.56347,5.21972h.06934c.39062-1.56347.94287-3.26562,1.63232-5.21972l2.75977-7.49707h2.55225l.96582,15.499h-1.95459Z" transform="translate(0 -106.33333)" fill="#fff"/>
            <path d="M215.46387,133.2251H209.439V138.813h6.71485v1.67871h-8.71533v-15.499h8.37011v1.67871H209.439v4.89843h6.02491Z" transform="translate(0 -106.33333)" fill="#fff"/>
            <path d="M222.06543,126.69482h-4.71387v-1.70214h11.47412v1.70214h-4.73681V140.4917h-2.02344Z" transform="translate(0 -106.33333)" fill="#fff"/>
            <path d="M232.5542,124.99268V131.478h7.49609v-6.48535h2.02442v15.499h-2.02442v-7.2666H232.5542v7.2666h-2v-15.499Z" transform="translate(0 -106.33333)" fill="#fff"/>
            <path d="M247.55029,124.99268v15.499h-2v-15.499Z" transform="translate(0 -106.33333)" fill="#fff"/>
            <path d="M251.04785,140.4917v-15.499h2.18457l4.9668,7.84179a43.95975,43.95975,0,0,1,2.78223,5.03614l.04589-.02344c-.18359-2.06934-.23046-3.95508-.23046-6.36914v-6.48535h1.88574v15.499h-2.02344l-4.9209-7.86426a49.20611,49.20611,0,0,1-2.89746-5.17383l-.06836.02246c.11426,1.95508.16016,3.81739.16016,6.39258v6.62305Z" transform="translate(0 -106.33333)" fill="#fff"/>
            <path d="M277.97754,139.80225a14.45258,14.45258,0,0,1-4.75977.85058,7.2788,7.2788,0,0,1-7.956-7.81836c.02246-4.62207,3.19629-8.002,8.39258-8.002a9.57564,9.57564,0,0,1,3.86328.71289l-.48242,1.63184a8.05068,8.05068,0,0,0-3.42676-.666c-3.77051,0-6.23145,2.34473-6.23145,6.23145,0,3.93164,2.36817,6.2539,5.97852,6.2539a6.53988,6.53988,0,0,0,2.668-.41308v-4.62207h-3.15039v-1.61036h5.10449Z" transform="translate(0 -106.33333)" fill="#fff"/>
            <path d="M297.71094,139.80225a14.45258,14.45258,0,0,1-4.75977.85058,7.2788,7.2788,0,0,1-7.95605-7.81836c.02246-4.62207,3.19629-8.002,8.39258-8.002a9.57568,9.57568,0,0,1,3.86328.71289l-.48243,1.63184a8.05062,8.05062,0,0,0-3.42675-.666c-3.77051,0-6.23145,2.34473-6.23145,6.23145,0,3.93164,2.36817,6.2539,5.97852,6.2539a6.53991,6.53991,0,0,0,2.668-.41308v-4.62207h-3.15039v-1.61036h5.10449Z" transform="translate(0 -106.33333)" fill="#fff"/>
            <path d="M314.01855,132.58154c0,5.335-3.24316,8.16309-7.19824,8.16309-4.09277,0-6.96679-3.17285-6.96679-7.86426,0-4.9209,3.05761-8.14062,7.19726-8.14062C311.28125,124.73975,314.01855,127.98193,314.01855,132.58154Zm-12.02636.25293c0,3.31153,1.793,6.27735,4.94336,6.27735,3.17383,0,4.96679-2.91993,4.96679-6.43848,0-3.08105-1.60937-6.30078-4.94336-6.30078C303.64746,126.37256,301.99219,129.43115,301.99219,132.83447Z" transform="translate(0 -106.33333)" fill="#fff"/>
            <path d="M323.19727,140.4917l-3.93262-15.499h2.11621l1.83887,7.84179c.46,1.93164.874,3.86328,1.15039,5.35742h.0459c.25293-1.54.73535-3.37988,1.26464-5.38085l2.06934-7.81836h2.09277l1.88575,7.86425c.43652,1.83985.85058,3.67969,1.08007,5.3125h.0459c.32227-1.70214.75879-3.42675,1.24219-5.35839l2.04687-7.81836h2.0459l-4.3916,15.499h-2.09277l-1.9541-8.07129a46.3315,46.3315,0,0,1-1.01172-5.05859h-.04688a48.24252,48.24252,0,0,1-1.19531,5.05859l-2.208,8.07129Z" transform="translate(0 -106.33333)" fill="#fff"/>
            <path d="M340.126,125.19971a20.83026,20.83026,0,0,1,3.83984-.32129c2.13867,0,3.51856.39062,4.48438,1.26465a3.86061,3.86061,0,0,1,1.21875,2.94336,4.07,4.07,0,0,1-2.9209,3.95507v.06836c1.19629.41407,1.9082,1.51856,2.27636,3.12793a24.61771,24.61771,0,0,0,1.19629,4.25391h-2.07031a20.05238,20.05238,0,0,1-1.03418-3.70215c-.46-2.13867-1.28809-2.94336-3.10449-3.01269H342.126v6.71484h-2Zm2,7.05957h2.04687c2.13867,0,3.49512-1.17285,3.49512-2.94336,0-2-1.44922-2.874-3.56445-2.89746a8.23211,8.23211,0,0,0-1.97754.18457Z" transform="translate(0 -106.33333)" fill="#fff"/>
            <path d="M365.81348,132.58154c0,5.335-3.24317,8.16309-7.19825,8.16309-4.09277,0-6.96679-3.17285-6.96679-7.86426,0-4.9209,3.05761-8.14062,7.19726-8.14062C363.07617,124.73975,365.81348,127.98193,365.81348,132.58154Zm-12.02637.25293c0,3.31153,1.793,6.27735,4.94336,6.27735,3.17383,0,4.9668-2.91993,4.9668-6.43848,0-3.08105-1.60938-6.30078-4.94336-6.30078C355.44238,126.37256,353.78711,129.43115,353.78711,132.83447Z" transform="translate(0 -106.33333)" fill="#fff"/>
            <path d="M368.415,140.4917v-15.499h2.18457l4.9668,7.84179a43.95957,43.95957,0,0,1,2.78222,5.03614l.0459-.02344c-.18359-2.06934-.23047-3.95508-.23047-6.36914v-6.48535h1.88574v15.499h-2.02343l-4.9209-7.86426a49.20251,49.20251,0,0,1-2.89746-5.17383l-.06836.02246c.11426,1.95508.16015,3.81739.16015,6.39258v6.62305Z" transform="translate(0 -106.33333)" fill="#fff"/>
            <path d="M395.34473,139.80225a14.45264,14.45264,0,0,1-4.75977.85058,7.2788,7.2788,0,0,1-7.95605-7.81836c.02246-4.62207,3.19629-8.002,8.39257-8.002a9.5757,9.5757,0,0,1,3.86329.71289l-.48243,1.63184a8.05062,8.05062,0,0,0-3.42675-.666c-3.77051,0-6.23145,2.34473-6.23145,6.23145,0,3.93164,2.36816,6.2539,5.97852,6.2539a6.53986,6.53986,0,0,0,2.668-.41308v-4.62207h-3.15039v-1.61036h5.1045Z" transform="translate(0 -106.33333)" fill="#fff"/>
          </g>
        </g>
      </g>
      <g>
        <g>
          <g>
            <path d="M119.728,349.15918a34.23515,34.23515,0,0,1,5.67724-.44238c2.92383,0,5.06543.68066,6.4253,1.90429a6.16041,6.16041,0,0,1,2.00586,4.793,6.74226,6.74226,0,0,1-1.76807,4.89551,9.49169,9.49169,0,0,1-7.00293,2.51563,10.18483,10.18483,0,0,1-2.37988-.20313v9.17871H119.728Zm2.95752,11.04883a9.92077,9.92077,0,0,0,2.44775.23828c3.56934,0,5.74512-1.73438,5.74512-4.89551,0-3.02637-2.1416-4.48828-5.40528-4.48828a12.4186,12.4186,0,0,0-2.78759.23828Z" transform="translate(0 -106.33333)" fill="#87e3ce"/>
            <path d="M138.66553,364.59375l-2.37989,7.207h-3.05957l7.78516-22.91406h3.56934l7.81933,22.91406h-3.16162l-2.44775-7.207Zm7.51318-2.31152-2.24365-6.59571c-.51026-1.49609-.8501-2.85547-1.18994-4.18164h-.06836c-.33985,1.35938-.71387,2.75391-1.15576,4.14746l-2.24366,6.62989Z" transform="translate(0 -106.33333)" fill="#87e3ce"/>
            <path d="M172.69824,370.78125a21.35419,21.35419,0,0,1-7.03711,1.25781c-3.46777,0-6.32373-.88379-8.56738-3.02636a11.78633,11.78633,0,0,1-3.1958-8.53321c.03418-6.833,4.72559-11.83008,12.40918-11.83008a14.17453,14.17453,0,0,1,5.71142,1.05371l-.71435,2.41407a11.87433,11.87433,0,0,0-5.06543-.98633c-5.5752,0-9.21289,3.46777-9.21289,9.21289,0,5.81348,3.50146,9.24707,8.83887,9.24707a9.65188,9.65188,0,0,0,3.94384-.61133v-6.834h-4.65771v-2.37989h7.54736Z" transform="translate(0 -106.33333)" fill="#87e3ce"/>
            <path d="M189.08691,361.05762h-8.90722v8.26172h9.92676v2.48144H177.22217V348.88672h12.37451v2.48242h-9.417v7.24121h8.90722Z" transform="translate(0 -106.33333)" fill="#87e3ce"/>
            <path d="M201.15674,371.80078V348.88672h3.22949l7.34326,11.59277a64.95689,64.95689,0,0,1,4.11377,7.44531l.06787-.0332c-.272-3.06055-.34033-5.84765-.34033-9.418v-9.58691h2.78809v22.91406h-2.9917l-7.27539-11.62695a72.77006,72.77006,0,0,1-4.28369-7.64942l-.10206.03418c.17041,2.88965.23829,5.64356.23829,9.45118v9.791Z" transform="translate(0 -106.33333)" fill="#87e3ce"/>
            <path d="M243.11084,360.10645c0,7.88671-4.79395,12.06835-10.6416,12.06835-6.05078,0-10.30078-4.6914-10.30078-11.627,0-7.27539,4.522-12.03515,10.6416-12.03515C239.06494,348.5127,243.11084,353.30664,243.11084,360.10645Zm-17.78027.373c0,4.89551,2.65136,9.28125,7.30859,9.28125,4.69238,0,7.34375-4.31738,7.34375-9.51855,0-4.55567-2.37988-9.31543-7.30957-9.31543C227.77832,350.92676,225.33057,355.44824,225.33057,360.47949Z" transform="translate(0 -106.33333)" fill="#87e3ce"/>
            <path d="M250.45654,351.40332h-6.96972v-2.5166h16.96533v2.5166h-7.00391v20.39746h-2.9917Z" transform="translate(0 -106.33333)" fill="#87e3ce"/>
            <path d="M270.21094,348.88672h12.34082v2.48242H273.168v7.61524h8.66992v2.44726H273.168v10.36914h-2.957Z" transform="translate(0 -106.33333)" fill="#87e3ce"/>
            <path d="M306.35059,360.10645c0,7.88671-4.79395,12.06835-10.64161,12.06835-6.05078,0-10.30078-4.6914-10.30078-11.627,0-7.27539,4.52149-12.03515,10.6416-12.03515C302.30469,348.5127,306.35059,353.30664,306.35059,360.10645Zm-17.78028.373c0,4.89551,2.65137,9.28125,7.30957,9.28125,4.69141,0,7.34278-4.31738,7.34278-9.51855,0-4.55567-2.37989-9.31543-7.30957-9.31543C291.01758,350.92676,288.57031,355.44824,288.57031,360.47949Z" transform="translate(0 -106.33333)" fill="#87e3ce"/>
            <path d="M313.15137,348.88672v13.56543c0,5.13281,2.27832,7.30859,5.33789,7.30859,3.39941,0,5.57519-2.24316,5.57519-7.30859V348.88672h2.99219v13.36133c0,7.03711-3.70605,9.92675-8.66894,9.92675-4.69239,0-8.22754-2.68554-8.22754-9.791V348.88672Z" transform="translate(0 -106.33333)" fill="#87e3ce"/>
            <path d="M332.19238,371.80078V348.88672h3.2295l7.34277,11.59277a64.89221,64.89221,0,0,1,4.11426,7.44531l.06738-.0332c-.27149-3.06055-.33984-5.84765-.33984-9.418v-9.58691h2.78808v22.91406h-2.99219l-7.27441-11.62695a72.60251,72.60251,0,0,1-4.28418-7.64942l-.10156.03418c.16992,2.88965.2373,5.64356.2373,9.45118v9.791Z" transform="translate(0 -106.33333)" fill="#87e3ce"/>
            <path d="M354.56445,349.19336a42.28915,42.28915,0,0,1,6.28907-.47656c4.25,0,7.27539.98632,9.28125,2.85644,2.04,1.86914,3.22949,4.52149,3.22949,8.22656a12.11821,12.11821,0,0,1-3.29785,8.90723c-2.14161,2.1416-5.67676,3.29785-10.13086,3.29785a47.73,47.73,0,0,1-5.3711-.27246Zm2.957,20.26172a18.7115,18.7115,0,0,0,2.99219.16992c6.32324,0,9.75684-3.53613,9.75684-9.72266.03418-5.40625-3.02539-8.83984-9.28125-8.83984a16.80838,16.80838,0,0,0-3.46778.30664Z" transform="translate(0 -106.33333)" fill="#87e3ce"/>
          </g>
          <g>
            <path d="M121.728,349.15918a34.23515,34.23515,0,0,1,5.67724-.44238c2.92383,0,5.06543.68066,6.4253,1.90429a6.16041,6.16041,0,0,1,2.00586,4.793,6.74226,6.74226,0,0,1-1.76807,4.89551,9.49169,9.49169,0,0,1-7.00293,2.51563,10.18483,10.18483,0,0,1-2.37988-.20313v9.17871H121.728Zm2.95752,11.04883a9.92077,9.92077,0,0,0,2.44775.23828c3.56934,0,5.74512-1.73438,5.74512-4.89551,0-3.02637-2.1416-4.48828-5.40528-4.48828a12.4186,12.4186,0,0,0-2.78759.23828Z" transform="translate(0 -106.33333)" fill="#87e3ce"/>
            <path d="M140.66553,364.59375l-2.37989,7.207h-3.05957l7.78516-22.91406h3.56934l7.81933,22.91406h-3.16162l-2.44775-7.207Zm7.51318-2.31152-2.24365-6.59571c-.51026-1.49609-.8501-2.85547-1.18994-4.18164h-.06836c-.33985,1.35938-.71387,2.75391-1.15576,4.14746l-2.24366,6.62989Z" transform="translate(0 -106.33333)" fill="#87e3ce"/>
            <path d="M174.69824,370.78125a21.35419,21.35419,0,0,1-7.03711,1.25781c-3.46777,0-6.32373-.88379-8.56738-3.02636a11.78633,11.78633,0,0,1-3.1958-8.53321c.03418-6.833,4.72559-11.83008,12.40918-11.83008a14.17453,14.17453,0,0,1,5.71142,1.05371l-.71435,2.41407a11.87433,11.87433,0,0,0-5.06543-.98633c-5.5752,0-9.21289,3.46777-9.21289,9.21289,0,5.81348,3.50146,9.24707,8.83887,9.24707a9.65188,9.65188,0,0,0,3.94384-.61133v-6.834h-4.65771v-2.37989h7.54736Z" transform="translate(0 -106.33333)" fill="#87e3ce"/>
            <path d="M191.08691,361.05762h-8.90722v8.26172h9.92676v2.48144H179.22217V348.88672h12.37451v2.48242h-9.417v7.24121h8.90722Z" transform="translate(0 -106.33333)" fill="#87e3ce"/>
            <path d="M203.15674,371.80078V348.88672h3.22949l7.34326,11.59277a64.95689,64.95689,0,0,1,4.11377,7.44531l.06787-.0332c-.272-3.06055-.34033-5.84765-.34033-9.418v-9.58691h2.78809v22.91406h-2.9917l-7.27539-11.62695a72.77006,72.77006,0,0,1-4.28369-7.64942l-.10206.03418c.17041,2.88965.23829,5.64356.23829,9.45118v9.791Z" transform="translate(0 -106.33333)" fill="#87e3ce"/>
            <path d="M245.11084,360.10645c0,7.88671-4.79395,12.06835-10.6416,12.06835-6.05078,0-10.30078-4.6914-10.30078-11.627,0-7.27539,4.522-12.03515,10.6416-12.03515C241.06494,348.5127,245.11084,353.30664,245.11084,360.10645Zm-17.78027.373c0,4.89551,2.65136,9.28125,7.30859,9.28125,4.69238,0,7.34375-4.31738,7.34375-9.51855,0-4.55567-2.37988-9.31543-7.30957-9.31543C229.77832,350.92676,227.33057,355.44824,227.33057,360.47949Z" transform="translate(0 -106.33333)" fill="#87e3ce"/>
            <path d="M252.457,351.40332h-6.97021v-2.5166h16.96533v2.5166h-7.00391v20.39746H252.457Z" transform="translate(0 -106.33333)" fill="#87e3ce"/>
            <path d="M272.21094,348.88672h12.34082v2.48242H275.168v7.61524h8.66992v2.44726H275.168v10.36914h-2.957Z" transform="translate(0 -106.33333)" fill="#87e3ce"/>
            <path d="M308.35059,360.10645c0,7.88671-4.79395,12.06835-10.64161,12.06835-6.05078,0-10.30078-4.6914-10.30078-11.627,0-7.27539,4.52149-12.03515,10.6416-12.03515C304.30469,348.5127,308.35059,353.30664,308.35059,360.10645Zm-17.78028.373c0,4.89551,2.65137,9.28125,7.30957,9.28125,4.69141,0,7.34278-4.31738,7.34278-9.51855,0-4.55567-2.37989-9.31543-7.30957-9.31543C293.01758,350.92676,290.57031,355.44824,290.57031,360.47949Z" transform="translate(0 -106.33333)" fill="#87e3ce"/>
            <path d="M315.15137,348.88672v13.56543c0,5.13281,2.27832,7.30859,5.33789,7.30859,3.39941,0,5.57519-2.24316,5.57519-7.30859V348.88672h2.99219v13.36133c0,7.03711-3.70605,9.92675-8.66894,9.92675-4.69239,0-8.22754-2.68554-8.22754-9.791V348.88672Z" transform="translate(0 -106.33333)" fill="#87e3ce"/>
            <path d="M334.19238,371.80078V348.88672h3.2295l7.34277,11.59277a64.89221,64.89221,0,0,1,4.11426,7.44531l.06738-.0332c-.27149-3.06055-.33984-5.84765-.33984-9.418v-9.58691h2.78808v22.91406h-2.99219l-7.27441-11.62695a72.60251,72.60251,0,0,1-4.28418-7.64942l-.10156.03418c.16992,2.88965.2373,5.64356.2373,9.45118v9.791Z" transform="translate(0 -106.33333)" fill="#87e3ce"/>
            <path d="M356.56445,349.19336a42.28915,42.28915,0,0,1,6.28907-.47656c4.25,0,7.27539.98632,9.28125,2.85644,2.04,1.86914,3.22949,4.52149,3.22949,8.22656a12.11821,12.11821,0,0,1-3.29785,8.90723c-2.14161,2.1416-5.67676,3.29785-10.13086,3.29785a47.73,47.73,0,0,1-5.3711-.27246Zm2.957,20.26172a18.7115,18.7115,0,0,0,2.99219.16992c6.32324,0,9.75684-3.53613,9.75684-9.72266.03418-5.40625-3.02539-8.83984-9.28125-8.83984a16.80838,16.80838,0,0,0-3.46778.30664Z" transform="translate(0 -106.33333)" fill="#87e3ce"/>
          </g>
        </g>
        <g>
          <g>
            <path d="M117.728,349.15918a34.23515,34.23515,0,0,1,5.67724-.44238c2.92383,0,5.06543.68066,6.4253,1.90429a6.16041,6.16041,0,0,1,2.00586,4.793,6.74226,6.74226,0,0,1-1.76807,4.89551,9.49169,9.49169,0,0,1-7.00293,2.51563,10.18483,10.18483,0,0,1-2.37988-.20313v9.17871H117.728Zm2.95752,11.04883a9.92077,9.92077,0,0,0,2.44775.23828c3.56934,0,5.74512-1.73438,5.74512-4.89551,0-3.02637-2.1416-4.48828-5.40528-4.48828a12.4186,12.4186,0,0,0-2.78759.23828Z" transform="translate(0 -106.33333)" fill="#c0283f"/>
            <path d="M136.66553,364.59375l-2.37989,7.207h-3.05957l7.78516-22.91406h3.56934l7.81933,22.91406h-3.16162l-2.44775-7.207Zm7.51318-2.31152-2.24365-6.59571c-.51026-1.49609-.8501-2.85547-1.18994-4.18164h-.06836c-.33985,1.35938-.71387,2.75391-1.15576,4.14746l-2.24366,6.62989Z" transform="translate(0 -106.33333)" fill="#c0283f"/>
            <path d="M170.69824,370.78125a21.35419,21.35419,0,0,1-7.03711,1.25781c-3.46777,0-6.32373-.88379-8.56738-3.02636a11.78633,11.78633,0,0,1-3.1958-8.53321c.03418-6.833,4.72559-11.83008,12.40918-11.83008a14.17453,14.17453,0,0,1,5.71142,1.05371l-.71435,2.41407a11.87433,11.87433,0,0,0-5.06543-.98633c-5.5752,0-9.21289,3.46777-9.21289,9.21289,0,5.81348,3.50146,9.24707,8.83887,9.24707a9.65188,9.65188,0,0,0,3.94384-.61133v-6.834h-4.65771v-2.37989h7.54736Z" transform="translate(0 -106.33333)" fill="#c0283f"/>
            <path d="M187.08691,361.05762h-8.90722v8.26172h9.92676v2.48144H175.22217V348.88672h12.37451v2.48242h-9.417v7.24121h8.90722Z" transform="translate(0 -106.33333)" fill="#c0283f"/>
            <path d="M199.15674,371.80078V348.88672h3.22949l7.34326,11.59277a64.95689,64.95689,0,0,1,4.11377,7.44531l.06787-.0332c-.272-3.06055-.34033-5.84765-.34033-9.418v-9.58691h2.78809v22.91406h-2.9917l-7.27539-11.62695a72.77006,72.77006,0,0,1-4.28369-7.64942l-.10206.03418c.17041,2.88965.23829,5.64356.23829,9.45118v9.791Z" transform="translate(0 -106.33333)" fill="#c0283f"/>
            <path d="M241.11084,360.10645c0,7.88671-4.79395,12.06835-10.6416,12.06835-6.05078,0-10.30078-4.6914-10.30078-11.627,0-7.27539,4.522-12.03515,10.6416-12.03515C237.06494,348.5127,241.11084,353.30664,241.11084,360.10645Zm-17.78027.373c0,4.89551,2.65136,9.28125,7.30859,9.28125,4.69238,0,7.34375-4.31738,7.34375-9.51855,0-4.55567-2.37988-9.31543-7.30957-9.31543C225.77832,350.92676,223.33057,355.44824,223.33057,360.47949Z" transform="translate(0 -106.33333)" fill="#c0283f"/>
            <path d="M248.45654,351.40332h-6.96972v-2.5166h16.96533v2.5166h-7.00391v20.39746h-2.9917Z" transform="translate(0 -106.33333)" fill="#c0283f"/>
            <path d="M268.21094,348.88672h12.34082v2.48242H271.168v7.61524h8.66992v2.44726H271.168v10.36914h-2.957Z" transform="translate(0 -106.33333)" fill="#c0283f"/>
            <path d="M304.35059,360.10645c0,7.88671-4.79395,12.06835-10.64161,12.06835-6.05078,0-10.30078-4.6914-10.30078-11.627,0-7.27539,4.52149-12.03515,10.6416-12.03515C300.30469,348.5127,304.35059,353.30664,304.35059,360.10645Zm-17.78028.373c0,4.89551,2.65137,9.28125,7.30957,9.28125,4.69141,0,7.34278-4.31738,7.34278-9.51855,0-4.55567-2.37989-9.31543-7.30957-9.31543C289.01758,350.92676,286.57031,355.44824,286.57031,360.47949Z" transform="translate(0 -106.33333)" fill="#c0283f"/>
            <path d="M311.15137,348.88672v13.56543c0,5.13281,2.27832,7.30859,5.33789,7.30859,3.39941,0,5.57519-2.24316,5.57519-7.30859V348.88672h2.99219v13.36133c0,7.03711-3.70605,9.92675-8.66894,9.92675-4.69239,0-8.22754-2.68554-8.22754-9.791V348.88672Z" transform="translate(0 -106.33333)" fill="#c0283f"/>
            <path d="M330.19238,371.80078V348.88672h3.2295l7.34277,11.59277a64.89221,64.89221,0,0,1,4.11426,7.44531l.06738-.0332c-.27149-3.06055-.33984-5.84765-.33984-9.418v-9.58691h2.78808v22.91406h-2.99219l-7.27441-11.62695a72.60251,72.60251,0,0,1-4.28418-7.64942l-.10156.03418c.16992,2.88965.2373,5.64356.2373,9.45118v9.791Z" transform="translate(0 -106.33333)" fill="#c0283f"/>
            <path d="M352.56445,349.19336a42.28915,42.28915,0,0,1,6.28907-.47656c4.25,0,7.27539.98632,9.28125,2.85644,2.04,1.86914,3.22949,4.52149,3.22949,8.22656a12.11821,12.11821,0,0,1-3.29785,8.90723c-2.14161,2.1416-5.67676,3.29785-10.13086,3.29785a47.73,47.73,0,0,1-5.3711-.27246Zm2.957,20.26172a18.7115,18.7115,0,0,0,2.99219.16992c6.32324,0,9.75684-3.53613,9.75684-9.72266.03418-5.40625-3.02539-8.83984-9.28125-8.83984a16.80838,16.80838,0,0,0-3.46778.30664Z" transform="translate(0 -106.33333)" fill="#c0283f"/>
          </g>
          <g>
            <path d="M119.728,349.15918a34.23515,34.23515,0,0,1,5.67724-.44238c2.92383,0,5.06543.68066,6.4253,1.90429a6.16041,6.16041,0,0,1,2.00586,4.793,6.74226,6.74226,0,0,1-1.76807,4.89551,9.49169,9.49169,0,0,1-7.00293,2.51563,10.18483,10.18483,0,0,1-2.37988-.20313v9.17871H119.728Zm2.95752,11.04883a9.92077,9.92077,0,0,0,2.44775.23828c3.56934,0,5.74512-1.73438,5.74512-4.89551,0-3.02637-2.1416-4.48828-5.40528-4.48828a12.4186,12.4186,0,0,0-2.78759.23828Z" transform="translate(0 -106.33333)" fill="#fff"/>
            <path d="M138.66553,364.59375l-2.37989,7.207h-3.05957l7.78516-22.91406h3.56934l7.81933,22.91406h-3.16162l-2.44775-7.207Zm7.51318-2.31152-2.24365-6.59571c-.51026-1.49609-.8501-2.85547-1.18994-4.18164h-.06836c-.33985,1.35938-.71387,2.75391-1.15576,4.14746l-2.24366,6.62989Z" transform="translate(0 -106.33333)" fill="#fff"/>
            <path d="M172.69824,370.78125a21.35419,21.35419,0,0,1-7.03711,1.25781c-3.46777,0-6.32373-.88379-8.56738-3.02636a11.78633,11.78633,0,0,1-3.1958-8.53321c.03418-6.833,4.72559-11.83008,12.40918-11.83008a14.17453,14.17453,0,0,1,5.71142,1.05371l-.71435,2.41407a11.87433,11.87433,0,0,0-5.06543-.98633c-5.5752,0-9.21289,3.46777-9.21289,9.21289,0,5.81348,3.50146,9.24707,8.83887,9.24707a9.65188,9.65188,0,0,0,3.94384-.61133v-6.834h-4.65771v-2.37989h7.54736Z" transform="translate(0 -106.33333)" fill="#fff"/>
            <path d="M189.08691,361.05762h-8.90722v8.26172h9.92676v2.48144H177.22217V348.88672h12.37451v2.48242h-9.417v7.24121h8.90722Z" transform="translate(0 -106.33333)" fill="#fff"/>
            <path d="M201.15674,371.80078V348.88672h3.22949l7.34326,11.59277a64.95689,64.95689,0,0,1,4.11377,7.44531l.06787-.0332c-.272-3.06055-.34033-5.84765-.34033-9.418v-9.58691h2.78809v22.91406h-2.9917l-7.27539-11.62695a72.77006,72.77006,0,0,1-4.28369-7.64942l-.10206.03418c.17041,2.88965.23829,5.64356.23829,9.45118v9.791Z" transform="translate(0 -106.33333)" fill="#fff"/>
            <path d="M243.11084,360.10645c0,7.88671-4.79395,12.06835-10.6416,12.06835-6.05078,0-10.30078-4.6914-10.30078-11.627,0-7.27539,4.522-12.03515,10.6416-12.03515C239.06494,348.5127,243.11084,353.30664,243.11084,360.10645Zm-17.78027.373c0,4.89551,2.65136,9.28125,7.30859,9.28125,4.69238,0,7.34375-4.31738,7.34375-9.51855,0-4.55567-2.37988-9.31543-7.30957-9.31543C227.77832,350.92676,225.33057,355.44824,225.33057,360.47949Z" transform="translate(0 -106.33333)" fill="#fff"/>
            <path d="M250.45654,351.40332h-6.96972v-2.5166h16.96533v2.5166h-7.00391v20.39746h-2.9917Z" transform="translate(0 -106.33333)" fill="#fff"/>
            <path d="M270.21094,348.88672h12.34082v2.48242H273.168v7.61524h8.66992v2.44726H273.168v10.36914h-2.957Z" transform="translate(0 -106.33333)" fill="#fff"/>
            <path d="M306.35059,360.10645c0,7.88671-4.79395,12.06835-10.64161,12.06835-6.05078,0-10.30078-4.6914-10.30078-11.627,0-7.27539,4.52149-12.03515,10.6416-12.03515C302.30469,348.5127,306.35059,353.30664,306.35059,360.10645Zm-17.78028.373c0,4.89551,2.65137,9.28125,7.30957,9.28125,4.69141,0,7.34278-4.31738,7.34278-9.51855,0-4.55567-2.37989-9.31543-7.30957-9.31543C291.01758,350.92676,288.57031,355.44824,288.57031,360.47949Z" transform="translate(0 -106.33333)" fill="#fff"/>
            <path d="M313.15137,348.88672v13.56543c0,5.13281,2.27832,7.30859,5.33789,7.30859,3.39941,0,5.57519-2.24316,5.57519-7.30859V348.88672h2.99219v13.36133c0,7.03711-3.70605,9.92675-8.66894,9.92675-4.69239,0-8.22754-2.68554-8.22754-9.791V348.88672Z" transform="translate(0 -106.33333)" fill="#fff"/>
            <path d="M332.19238,371.80078V348.88672h3.2295l7.34277,11.59277a64.89221,64.89221,0,0,1,4.11426,7.44531l.06738-.0332c-.27149-3.06055-.33984-5.84765-.33984-9.418v-9.58691h2.78808v22.91406h-2.99219l-7.27441-11.62695a72.60251,72.60251,0,0,1-4.28418-7.64942l-.10156.03418c.16992,2.88965.2373,5.64356.2373,9.45118v9.791Z" transform="translate(0 -106.33333)" fill="#fff"/>
            <path d="M354.56445,349.19336a42.28915,42.28915,0,0,1,6.28907-.47656c4.25,0,7.27539.98632,9.28125,2.85644,2.04,1.86914,3.22949,4.52149,3.22949,8.22656a12.11821,12.11821,0,0,1-3.29785,8.90723c-2.14161,2.1416-5.67676,3.29785-10.13086,3.29785a47.73,47.73,0,0,1-5.3711-.27246Zm2.957,20.26172a18.7115,18.7115,0,0,0,2.99219.16992c6.32324,0,9.75684-3.53613,9.75684-9.72266.03418-5.40625-3.02539-8.83984-9.28125-8.83984a16.80838,16.80838,0,0,0-3.46778.30664Z" transform="translate(0 -106.33333)" fill="#fff"/>
          </g>
        </g>
      </g>
    </g>
  </g>
</svg>
